<?xml version="1.0" encoding="utf-8"?>
<svg data-v-0dd9719b="" version="1.0" xmlns="http://www.w3.org/2000/svg" width="100%" height="100%" viewBox="0 0 340.000000 100.000000" preserveAspectRatio="xMidYMid meet" color-interpolation-filters="sRGB" style="margin: auto;" xmlns:bx="https://boxy-svg.com">
  <rect data-v-0dd9719b="" x="-0.457" y="1.61" width="339.828" height="89.6" fill="#fff" fill-opacity="0" class="background" style="" id="object-0"/>
  <rect data-v-0dd9719b="" x="0" y="0" width="100%" height="100%" fill="url(#watermark)" fill-opacity="1" class="watermarklayer"/>
  <g data-v-0dd9719b="" fill="#FFFFFF" class="icon-text-wrapper icon-svg-group iconsvg" transform="matrix(1, 0, 0, 1, -44.053562, 60.793541)">
    <g class="iconsvg-imagesvg" transform="matrix(1.132797, 0, 0, 1.147887, 50.173, -53.287483)" style="">
      <g>
        <rect fill="#FFFFFF" fill-opacity="0" stroke-width="2" x="0" y="0" width="59.99999999999999" height="68.57142857142857" class="image-rect"/>
        <svg filter="url(#colors3594155558)" x="0" y="0" width="59.99999999999999" height="68.57142857142857" filtersec="colorsf1525403215" class="image-svg-svg primary" style="overflow: visible;">
          <svg xmlns="http://www.w3.org/2000/svg" data-name="Layer 1" viewBox="22 18 56 64" x="0px" y="0px">
            <title>hotel_11</title>
            <path d="M33,18c-6.17,0-11,6.59-11,15,0,7.48,3.82,13.5,9,14.75V80a2,2,0,0,0,4,0V47.75c5.18-1.25,9-7.27,9-14.75C44,24.59,39.17,18,33,18Zm0,26c-3.79,0-7-5-7-11s3.21-11,7-11,7,5,7,11S36.79,44,33,44ZM78,20V36c0,6.75-3.33,11-9,11.85V80a2,2,0,0,1-4,0V47.85c-5.67-.8-9-5.1-9-11.85V20a2,2,0,0,1,4,0V36c0,5.31,2.36,8,7,8s7-2.69,7-8V20a2,2,0,0,1,4,0ZM65,36V20a2,2,0,0,1,4,0V36a2,2,0,0,1-4,0Z"/>
          </svg>
        </svg>
        <defs>
          <filter id="colors3594155558">
            <feColorMatrix type="matrix" values="0 0 0 0 0.97265625  0 0 0 0 0.44921875  0 0 0 0 0.0859375  0 0 0 1 0" class="icon-fecolormatrix"/>
          </filter>
          <bx:export>
            <bx:file format="png" href="#object-0"/>
          </bx:export>
        </defs>
      </g>
    </g>
    <g transform="matrix(1.392133, 0, 0, 1.463768, 87.257019, -26.046949)" style="">
      <g data-gra="path-name" fill-rule="" class="tp-name iconsvg-namesvg" transform="matrix(1, 0, 0, 1, 25.923756, -1.495601)">
        <g transform="scale(1)">
          <g>
            <path d="M0.33-23.69L20.28-23.69 20.28-17.8 13.99-17.8 13.99 0 6.56 0 6.56-17.8 0.33-17.8 0.33-23.69ZM21.28-9.44Q21.28-12.41 22.3-14.61 23.32-16.8 25.1-17.95 26.87-19.11 29.08-19.11L29.08-19.11Q30.92-19.11 32.26-18.35 33.6-17.6 34.3-16.3L34.3-16.3 34.3-18.87 41.7-18.87 41.7 0 34.3 0 34.3-2.58Q33.6-1.27 32.26-0.52 30.92 0.23 29.08 0.23L29.08 0.23Q26.87 0.23 25.1-0.92 23.32-2.07 22.3-4.27 21.28-6.46 21.28-9.44L21.28-9.44ZM34.3-9.44Q34.3-10.94 33.53-11.78 32.76-12.62 31.56-12.62L31.56-12.62Q30.35-12.62 29.58-11.78 28.81-10.94 28.81-9.44L28.81-9.44Q28.81-7.93 29.58-7.09 30.35-6.26 31.56-6.26L31.56-6.26Q32.76-6.26 33.53-7.09 34.3-7.93 34.3-9.44L34.3-9.44ZM53.44 0.23Q50.76 0.23 48.71-0.64 46.65-1.51 45.44-3.05 44.24-4.58 44.07-6.53L44.07-6.53 51.2-6.53Q51.33-5.69 51.92-5.29 52.5-4.89 53.41-4.89L53.41-4.89Q53.98-4.89 54.31-5.14 54.65-5.39 54.65-5.76L54.65-5.76Q54.65-6.39 53.94-6.66 53.24-6.93 51.57-7.26L51.57-7.26Q49.53-7.66 48.2-8.13 46.88-8.6 45.9-9.74 44.91-10.88 44.91-12.88L44.91-12.88Q44.91-14.62 45.83-16.05 46.75-17.47 48.56-18.29 50.36-19.11 52.94-19.11L52.94-19.11Q56.75-19.11 58.91-17.23 61.07-15.36 61.51-12.35L61.51-12.35 54.91-12.35Q54.75-13.12 54.21-13.54 53.68-13.95 52.77-13.95L52.77-13.95Q52.2-13.95 51.9-13.74 51.6-13.52 51.6-13.08L51.6-13.08Q51.6-12.52 52.3-12.23 53.01-11.95 54.55-11.65L54.55-11.65Q56.59-11.24 57.99-10.74 59.4-10.24 60.44-9.02 61.47-7.8 61.47-5.66L61.47-5.66Q61.47-3.98 60.5-2.64 59.53-1.31 57.71-0.54 55.88 0.23 53.44 0.23L53.44 0.23ZM74.39-6.32L76.16-6.32 76.16 0 73.35 0Q65.59 0 65.59-7.73L65.59-7.73 65.59-12.68 63.25-12.68 63.25-18.87 65.59-18.87 65.59-23.42 73.02-23.42 73.02-18.87 76.1-18.87 76.1-12.68 73.02-12.68 73.02-7.6Q73.02-6.93 73.34-6.63 73.65-6.32 74.39-6.32L74.39-6.32ZM97.28-9.6Q97.28-8.83 97.18-8.13L97.18-8.13 85.23-8.13Q85.4-5.69 87.27-5.69L87.27-5.69Q88.48-5.69 89.01-6.79L89.01-6.79 96.88-6.79Q96.48-4.79 95.19-3.2 93.9-1.61 91.94-0.69 89.98 0.23 87.64 0.23L87.64 0.23Q84.83 0.23 82.64-0.94 80.45-2.11 79.22-4.3 78-6.49 78-9.44L78-9.44Q78-12.38 79.22-14.57 80.45-16.77 82.64-17.94 84.83-19.11 87.64-19.11L87.64-19.11Q90.45-19.11 92.64-17.95 94.84-16.8 96.06-14.66 97.28-12.52 97.28-9.6L97.28-9.6ZM85.33-11.38L89.75-11.38Q89.75-12.31 89.15-12.8 88.54-13.28 87.64-13.28L87.64-13.28Q85.67-13.28 85.33-11.38L85.33-11.38ZM115.48-12.15Q117.62-11.65 118.81-10.09 120-8.53 120-6.49L120-6.49Q120-3.38 117.94-1.69 115.88 0 112.04 0L112.04 0 99.62 0 99.62-23.69 111.7-23.69Q115.32-23.69 117.39-22.12 119.46-20.55 119.46-17.53L119.46-17.53Q119.46-15.46 118.38-14.04 117.29-12.62 115.48-12.15L115.48-12.15ZM107.05-17.8L107.05-14.46 109.93-14.46Q110.93-14.46 111.42-14.86 111.9-15.26 111.9-16.1L111.9-16.1Q111.9-16.97 111.42-17.38 110.93-17.8 109.93-17.8L109.93-17.8 107.05-17.8ZM110.43-5.96Q111.43-5.96 111.92-6.34 112.4-6.73 112.4-7.6L112.4-7.6Q112.4-9.3 110.43-9.3L110.43-9.3 107.05-9.3 107.05-5.96 110.43-5.96ZM135.06-18.87L142.49-18.87 142.49 0 135.06 0 135.06-2.88Q134.19-1.54 132.73-0.7 131.28 0.13 129.27 0.13L129.27 0.13Q126.02 0.13 124.2-2.04 122.38-4.22 122.38-7.93L122.38-7.93 122.38-18.87 129.77-18.87 129.77-8.87Q129.77-7.53 130.49-6.74 131.21-5.96 132.41-5.96L132.41-5.96Q133.65-5.96 134.36-6.74 135.06-7.53 135.06-8.87L135.06-8.87 135.06-18.87ZM144.83-9.44Q144.83-12.41 145.85-14.61 146.87-16.8 148.64-17.95 150.42-19.11 152.63-19.11L152.63-19.11Q154.47-19.11 155.79-18.35 157.11-17.6 157.81-16.3L157.81-16.3 157.81-24.76 165.24-24.76 165.24 0 157.81 0 157.81-2.58Q157.11-1.27 155.79-0.52 154.47 0.23 152.63 0.23L152.63 0.23Q150.42 0.23 148.64-0.92 146.87-2.07 145.85-4.27 144.83-6.46 144.83-9.44L144.83-9.44ZM157.85-9.44Q157.85-10.94 157.08-11.78 156.31-12.62 155.1-12.62L155.1-12.62Q153.9-12.62 153.13-11.78 152.36-10.94 152.36-9.44L152.36-9.44Q152.36-7.93 153.13-7.09 153.9-6.26 155.1-6.26L155.1-6.26Q156.31-6.26 157.08-7.09 157.85-7.93 157.85-9.44L157.85-9.44ZM176.99 0.23Q174.31 0.23 172.25-0.64 170.2-1.51 168.99-3.05 167.79-4.58 167.62-6.53L167.62-6.53 174.75-6.53Q174.88-5.69 175.47-5.29 176.05-4.89 176.95-4.89L176.95-4.89Q177.52-4.89 177.86-5.14 178.19-5.39 178.19-5.76L178.19-5.76Q178.19-6.39 177.49-6.66 176.79-6.93 175.11-7.26L175.11-7.26Q173.07-7.66 171.75-8.13 170.43-8.6 169.44-9.74 168.46-10.88 168.46-12.88L168.46-12.88Q168.46-14.62 169.38-16.05 170.3-17.47 172.1-18.29 173.91-19.11 176.49-19.11L176.49-19.11Q180.3-19.11 182.46-17.23 184.62-15.36 185.05-12.35L185.05-12.35 178.46-12.35Q178.29-13.12 177.76-13.54 177.22-13.95 176.32-13.95L176.32-13.95Q175.75-13.95 175.45-13.74 175.15-13.52 175.15-13.08L175.15-13.08Q175.15-12.52 175.85-12.23 176.55-11.95 178.09-11.65L178.09-11.65Q180.13-11.24 181.54-10.74 182.94-10.24 183.98-9.02 185.02-7.8 185.02-5.66L185.02-5.66Q185.02-3.98 184.05-2.64 183.08-1.31 181.25-0.54 179.43 0.23 176.99 0.23L176.99 0.23Z" transform="translate(-0.33000001311302185, 24.760000228881836)" style=""/>
          </g>
        </g>
      </g>
    </g>
  </g>
</svg>